<svg width="163" height="38" viewBox="0 0 163 38" fill="none" xmlns="http://www.w3.org/2000/svg">
<path d="M31.9986 0C28.1027 0 24.4841 1.21093 21.4823 3.28573H31.9986C40.5396 3.28573 47.4897 10.3335 47.4897 19C47.4897 27.6665 40.5371 34.7143 31.9986 34.7143C31.8088 34.7143 31.6215 34.7117 31.4317 34.7041C27.356 34.5521 23.565 32.5457 20.9628 29.3613L12.2246 18.6884C11.9024 18.2957 11.9224 17.7207 12.2695 17.3508L13.4907 16.0461L19.8839 9.21627L20.8479 8.1852C21.4897 7.49867 22.4038 6.71587 23.148 6.15093L18.2257 6.16107C18.2007 6.1864 18.0259 6.35867 18.0009 6.38653L4.80491 20.1603C4.49524 20.4845 3.95331 20.2616 3.95331 19.8081V4.03053H0V34.0049H3.95082V26.8052C3.95082 26.4075 4.10565 26.0275 4.38036 25.7437L8.06646 21.9463C8.57592 21.4219 9.41753 21.4497 9.89202 22.0071L17.022 30.4C17.5189 31.0663 18.0559 31.7047 18.6353 32.2975C19.0199 32.6977 19.4194 33.0803 19.839 33.44C23.113 36.2799 27.361 38 31.9986 38C42.3252 38 50.7288 29.4753 50.7288 19C50.7288 8.52213 42.3252 0 31.9986 0Z" fill="#FF1F4A"/>
<path d="M40.23 29.0496H29.8061C26.9116 29.0496 24.5566 26.6607 24.5566 23.7245V6.15332H28.5V23.7245C28.5 24.4541 29.0868 25.0495 29.8061 25.0495H40.23V29.0496Z" fill="#FF1F4A"/>
<path d="M82.233 13.176V21.878C82.233 24.1935 81.6661 25.977 80.5348 27.2234C79.4035 28.4698 77.7627 29.0955 75.615 29.0955C73.0777 29.0955 71.322 28.1556 70.3455 26.2734C69.8386 27.2234 69.1443 27.9378 68.2677 28.4115C67.4087 28.8675 66.3348 29.0955 65.0462 29.0955C62.8785 29.0955 61.2302 28.4723 60.0989 27.2234C58.9876 25.977 58.4307 24.1935 58.4307 21.878V13.176H61.2402V21.612C61.2402 23.2942 61.5424 24.5431 62.1467 25.3538C62.7511 26.1467 63.7176 26.5419 65.0462 26.5419C66.3747 26.5419 67.3487 26.1366 67.9731 25.3234C68.6174 24.5127 68.9395 23.2739 68.9395 21.612V13.176H71.7491V21.612C71.7491 23.2764 72.0612 24.5127 72.6856 25.3234C73.3299 26.134 74.3163 26.5419 75.6424 26.5419C76.9685 26.5419 77.9075 26.1467 78.5119 25.3538C79.1163 24.5431 79.4184 23.2942 79.4184 21.612V13.176H82.228H82.233ZM94.4225 26.6002C96.2756 26.6002 97.769 25.9668 98.9028 24.7002L100.426 26.5419C99.7419 27.3728 98.8753 28.0062 97.8214 28.4419C96.7875 28.8776 95.6263 29.0955 94.3376 29.0955C92.6969 29.0955 91.2434 28.7586 89.9748 28.0847C88.7061 27.3906 87.7196 26.4304 87.0179 25.2043C86.3336 23.9756 85.994 22.5899 85.994 21.0471C85.994 19.5043 86.3261 18.1464 86.9904 16.9178C87.6747 15.6891 88.6012 14.7391 89.7725 14.0678C90.9637 13.3736 92.2998 13.0291 93.7832 13.0291C95.1892 13.0291 96.4679 13.3559 97.6192 14.0095C98.7704 14.6428 99.687 15.5447 100.371 16.7126C101.056 17.8804 101.405 19.2282 101.425 20.7507L89.0982 23.1852C89.4878 24.2746 90.1421 25.1156 91.0611 25.711C91.9976 26.3038 93.1189 26.6027 94.4275 26.6027L94.4225 26.6002ZM93.7782 15.4332C92.8018 15.4332 91.9252 15.6612 91.1435 16.1172C90.3818 16.5732 89.7875 17.2167 89.3579 18.0476C88.9284 18.8583 88.7136 19.8108 88.7136 20.8976V21.194L98.6381 19.294C98.3833 18.1464 97.8189 17.2142 96.9399 16.5023C96.0608 15.7904 95.0069 15.4332 93.7782 15.4332ZM113.58 13.0266C115.083 13.0266 116.429 13.3635 117.62 14.0374C118.812 14.7112 119.738 15.6511 120.403 16.8595C121.087 18.0679 121.426 19.4638 121.426 21.0471C121.426 22.6304 121.084 24.0364 120.403 25.2651C119.738 26.4735 118.812 27.4134 117.62 28.0872C116.429 28.7611 115.083 29.098 113.58 29.098C112.428 29.098 111.375 28.87 110.418 28.414C109.462 27.958 108.67 27.2943 108.046 26.4254V29.174H105.351V6.11816H108.16V15.5523C108.785 14.7214 109.567 14.0982 110.503 13.6802C111.44 13.2444 112.463 13.0266 113.577 13.0266H113.58ZM113.345 26.6002C114.341 26.6002 115.228 26.3722 116.01 25.9162C116.809 25.4399 117.436 24.7888 117.883 23.9554C118.352 23.1042 118.584 22.1339 118.584 21.0446C118.584 19.9552 118.35 18.9951 117.883 18.1642C117.433 17.313 116.809 16.6594 116.01 16.2034C115.228 15.7474 114.341 15.5194 113.345 15.5194C112.349 15.5194 111.482 15.7474 110.68 16.2034C109.879 16.6594 109.254 17.313 108.807 18.1642C108.358 18.9951 108.133 19.9552 108.133 21.0446C108.133 22.1339 108.358 23.1042 108.807 23.9554C109.257 24.7863 109.881 25.4399 110.68 25.9162C111.479 26.3722 112.369 26.6002 113.345 26.6002ZM132.073 29.0955C130.492 29.0955 129.076 28.7484 127.827 28.0568C126.598 27.3627 125.632 26.4127 124.928 25.2068C124.226 23.9782 123.874 22.5924 123.874 21.0496C123.874 19.5068 124.226 18.1287 124.928 16.9203C125.629 15.6916 126.596 14.7416 127.827 14.0703C129.076 13.3762 130.492 13.0316 132.073 13.0316C133.479 13.0316 134.727 13.3179 135.821 13.893C136.933 14.468 137.792 15.299 138.398 16.3883L136.261 17.7842C135.774 17.0318 135.167 16.4668 134.445 16.0919C133.723 15.717 132.922 15.527 132.045 15.527C131.031 15.527 130.112 15.755 129.293 16.211C128.491 16.667 127.857 17.3206 127.39 18.1718C126.941 19.0027 126.716 19.9628 126.716 21.0522C126.716 22.1415 126.941 23.1422 127.39 23.9934C127.86 24.8243 128.494 25.4678 129.293 25.9238C130.112 26.3798 131.031 26.6078 132.045 26.6078C132.924 26.6078 133.723 26.4203 134.445 26.0428C135.167 25.6679 135.771 25.103 136.261 24.3506L138.398 25.716C137.794 26.8054 136.935 27.6464 135.821 28.2418C134.727 28.8168 133.479 29.1031 132.073 29.1031V29.0955ZM148.453 29.0955C146.912 29.0955 145.526 28.7484 144.295 28.0568C143.064 27.3652 142.1 26.4127 141.395 25.2068C140.711 23.9782 140.371 22.5924 140.371 21.0496C140.371 19.5068 140.714 18.1287 141.395 16.9203C142.097 15.6916 143.064 14.7416 144.295 14.0703C145.523 13.3762 146.909 13.0316 148.453 13.0316C149.996 13.0316 151.37 13.3787 152.581 14.0703C153.81 14.7442 154.766 15.6942 155.45 16.9203C156.152 18.1287 156.504 19.5043 156.504 21.0496C156.504 22.595 156.152 23.9807 155.45 25.2068C154.766 26.4152 153.81 27.3652 152.581 28.0568C151.37 28.751 149.996 29.0955 148.453 29.0955ZM148.453 26.6002C149.449 26.6002 150.336 26.3722 151.117 25.9162C151.919 25.4399 152.543 24.7888 152.991 23.9554C153.44 23.1042 153.665 22.1339 153.665 21.0446C153.665 19.9552 153.44 18.9951 152.991 18.1642C152.541 17.313 151.917 16.6594 151.117 16.2034C150.336 15.7474 149.449 15.5194 148.453 15.5194C147.456 15.5194 146.56 15.7474 145.758 16.2034C144.977 16.6594 144.352 17.313 143.885 18.1642C143.436 18.9951 143.211 19.9552 143.211 21.0446C143.211 22.1339 143.436 23.1042 143.885 23.9554C144.355 24.7863 144.979 25.4399 145.758 25.9162C146.557 26.3722 147.456 26.6002 148.453 26.6002Z" fill="#FF1F4A"/>
<path d="M161.067 29.0949C160.52 29.0949 160.053 28.9074 159.661 28.53C159.271 28.1348 159.076 27.6382 159.076 27.0454C159.076 26.4526 159.271 25.9966 159.661 25.6192C160.05 25.224 160.52 25.0264 161.067 25.0264C161.613 25.0264 162.071 25.2138 162.443 25.5913C162.812 25.9662 163 26.4526 163 27.0454C163 27.6382 162.805 28.1348 162.415 28.53C162.043 28.9074 161.596 29.0949 161.069 29.0949H161.067Z" fill="#FF1F4A"/>
</svg>
