<svg width="387" height="101" viewBox="0 0 387 101" fill="none" xmlns="http://www.w3.org/2000/svg">
<g filter="url(#filter0_d_1_15)">

<path fill-rule="evenodd" clip-rule="evenodd" d="M5.655 1.829C4.745 2.835 4 4.542 4 5.622C4 7.65 39.351 66.907 41.368 68.259C41.991 68.677 43.625 68.902 45 68.759C47.483 68.502 50.576 64.48 58.323 51.432L61.146 46.678L67.039 56.589C70.281 62.04 73.841 67.113 74.952 67.862C79.597 70.997 80.825 69.512 99.855 37.742C109.835 21.081 118 6.518 118 5.38C118 2.611 114.952 0 111.719 0C108.608 0 107.887 0.995001 92.535 26.5C86.576 36.4 81.131 45.121 80.435 45.88C78.149 48.371 74.685 46.389 71.242 40.621L67.985 35.162L75.992 21.635C84.787 6.779 85.855 2.802 81.574 0.852C76.897 -1.279 74.85 0.341001 68.22 11.422C64.767 17.195 61.601 22.129 61.185 22.386C60.77 22.642 57.506 18.088 53.932 12.265C46.576 0.277999 45.35 -0.858 41.303 0.556C39.131 1.316 38.429 2.263 38.187 4.765C37.937 7.337 39.53 10.747 46.005 21.508L54.136 35.021L50.318 40.761C43.957 50.323 43.769 50.189 28.321 25.074C21.073 13.289 14.44 2.827 13.581 1.824C11.578 -0.516 7.775 -0.513999 5.655 1.829ZM150 40V66H152.5C154.651 66 155.002 65.546 155.015 62.75C155.024 60.963 155.361 60.006 155.765 60.624C157.696 63.578 163.662 65.992 169 65.98C180.305 65.954 186.954 58.899 186.984 46.898C186.997 41.669 186.527 39.594 184.726 36.922C178.588 27.813 167.44 25.498 158.601 31.496L155 33.94V23.97C155 14.002 154.999 14 152.5 14H150V40ZM364 15.759C364 16.177 364.937 17.104 366.083 17.82C367.228 18.535 369.057 21.136 370.147 23.6C371.884 27.527 372.044 29.344 371.441 38.341C370.777 48.258 370.835 48.697 373.194 51.439L375.634 54.275L373.193 56.716C370.807 59.102 370.768 59.398 371.454 69.977C372.221 81.814 371.505 84.579 366.199 90.25L363.626 93H367.158C370.998 93 372.705 91.577 375.517 86.034C377.014 83.083 377.177 80.964 376.618 71.758C375.975 61.181 376.015 60.894 378.435 58.474C379.796 57.113 381.38 56 381.955 56C382.53 56 383 55.1 383 54C383 52.9 382.358 52 381.573 52C380.787 52 379.209 50.809 378.064 49.354C376.145 46.914 376.033 45.877 376.628 36.07C377.3 25.01 376.539 21.671 372.224 16.75C370.717 15.031 364 14.222 364 15.759ZM115.5 29.439C106.286 32.815 101.768 43.997 105.449 54.316C108.146 61.88 114.608 65.942 124 65.976C132.989 66.01 140.441 61.012 136.812 57.384C135.274 55.845 134.972 55.877 132.478 57.839C125.237 63.535 113.16 59.907 110.545 51.25L109.865 49H125.521H141.176L140.484 44.75C140.104 42.413 139.094 38.997 138.24 37.161C134.939 30.063 123.967 26.337 115.5 29.439ZM217 37.949V43.898L213.298 42.351C202.962 38.033 193.604 47.06 196.925 58.144C197.717 60.789 199.166 62.74 201.304 64.044C205.153 66.391 211.719 66.585 214.777 64.443C216.789 63.034 217 63.034 217 64.443C217 65.333 217.857 66 219 66C220.922 66 221 65.333 221 49C221 32.667 220.922 32 219 32C217.224 32 217 32.667 217 37.949ZM131.124 37.745C132.594 39.26 134.098 41.513 134.466 42.75C135.135 45 135.134 45 122.5 45H109.865L110.577 42.75C111.164 40.892 113.882 36.039 114.365 35.985C114.439 35.977 116.265 35.355 118.423 34.604C123.292 32.91 127.425 33.931 131.124 37.745ZM175.033 35.517C182.314 39.282 183.393 51.967 176.897 57.433C170.958 62.431 162.401 61.297 157.726 54.893C153.758 49.457 156.007 38.689 161.763 35.565C165.329 33.63 171.342 33.608 175.033 35.517ZM306 53.52V68.227L316.612 67.834C326.852 67.455 327.311 67.34 329.704 64.557C332.441 61.376 332.328 57.125 329.423 53.915C328.392 52.776 328.228 51.977 328.935 51.54C329.521 51.178 330 49.178 330 47.096C330 40.905 327.617 39.563 315.897 39.156L306 38.813V53.52ZM336 53.619V68.239L345.25 67.83C358.975 67.223 364 63.373 364 53.464C364 43.4 357.909 39 343.98 39H336V53.619ZM233.378 42.437C228.774 44.441 227 47.607 227 53.823C227 58.64 227.366 59.566 230.519 62.719C233.906 66.106 234.262 66.221 240.049 65.803C246.935 65.305 250.211 63.164 248.057 60.569C246.93 59.211 246.545 59.205 244.67 60.518C241.379 62.824 236.292 62.383 233.455 59.545C232.105 58.195 231 56.62 231 56.045C231 55.392 234.558 55 240.5 55H250V51.723C250 47.763 247.878 44.506 243.989 42.494C240.457 40.668 237.48 40.652 233.378 42.437ZM251.392 42.662C251.762 43.673 254.188 49.354 256.782 55.287C260.978 64.88 261.756 66.043 263.814 65.787C265.712 65.552 267.012 63.521 271.039 54.5C273.739 48.45 275.96 42.938 275.974 42.25C275.988 41.563 275.155 41 274.123 41C272.839 41 271.597 42.501 270.19 45.75C269.059 48.362 267.159 52.691 265.968 55.369L263.801 60.239L259.601 50.869C256.219 43.323 254.946 41.434 253.06 41.162C251.151 40.886 250.843 41.164 251.392 42.662ZM322.066 45.035C326.578 47.45 323.007 51 316.066 51C312.086 51 312 50.926 312 47.5C312 44.074 312.086 44 316.066 44C318.302 44 321.002 44.466 322.066 45.035ZM214.2 48.046C216.834 50.68 217.166 51.594 216.654 54.796C215.197 63.898 203.789 64.538 200.659 55.694C200.307 54.701 200.648 52.384 201.416 50.546C204.015 44.326 209.423 43.269 214.2 48.046ZM243.365 47.073C248.078 50.78 246.873 52 238.5 52C230.315 52 229.575 51.334 233.455 47.455C236.454 44.455 239.87 44.323 243.365 47.073ZM354.975 46.975C357.707 49.707 358.457 53.483 356.976 57.058C355.359 60.962 353.277 62 347.066 62H342V53.5V45H347.5C351.643 45 353.487 45.487 354.975 46.975ZM285.571 57.571C283.45 59.693 283.585 64.315 285.829 66.345C287.96 68.274 293.067 68.533 294.8 66.8C296.352 65.248 296.352 58.752 294.8 57.2C293.088 55.488 287.427 55.716 285.571 57.571ZM324.849 58.434C325.385 61.248 322.301 63 316.809 63H312V59.452V55.905L318.24 56.202C323.484 56.453 324.539 56.809 324.849 58.434Z" fill="#FF1F4A"/>


</g>
<defs>
<filter id="filter0_d_1_15" x="0" y="0" width="387" height="101" filterUnits="userSpaceOnUse" color-interpolation-filters="sRGB">
<feFlood flood-opacity="0" result="BackgroundImageFix"/>
<feColorMatrix in="SourceAlpha" type="matrix" values="0 0 0 0 0 0 0 0 0 0 0 0 0 0 0 0 0 0 127 0" result="hardAlpha"/>
<feOffset dy="4"/>
<feGaussianBlur stdDeviation="2"/>
<feComposite in2="hardAlpha" operator="out"/>
<feColorMatrix type="matrix" values="0 0 0 0 0 0 0 0 0 0 0 0 0 0 0 0 0 0 0.25 0"/>
<feBlend mode="normal" in2="BackgroundImageFix" result="effect1_dropShadow_1_15"/>
<feBlend mode="normal" in="SourceGraphic" in2="effect1_dropShadow_1_15" result="shape"/>
</filter>
</defs>
</svg>
