<svg width="387" height="97" viewBox="0 0 387 97" fill="none" xmlns="http://www.w3.org/2000/svg">
<path fill-rule="evenodd" clip-rule="evenodd" d="M1.56618 1.83939C-0.679818 4.32139 -0.507818 7.81539 2.06718 12.0104C3.24918 13.9354 5.28518 17.5354 6.59218 20.0104C7.89818 22.4854 9.38818 25.1854 9.90118 26.0104C10.4152 26.8354 13.4152 31.7854 16.5682 37.0104C19.7202 42.2354 22.8232 46.9604 23.4622 47.5104C24.1012 48.0604 27.4412 53.2354 30.8832 59.0104C34.3252 64.7854 37.6522 69.8414 38.2762 70.2454C38.9002 70.6494 40.6262 70.9864 42.1102 70.9954C45.1812 71.0124 47.2142 68.6414 53.8882 57.2604C56.2262 53.2734 58.2922 50.0104 58.4792 50.0104C58.6662 50.0104 61.3992 54.3334 64.5522 59.6174C67.7052 64.9004 71.2922 69.6824 72.5242 70.2434C75.8262 71.7484 79.6702 70.3764 81.3722 67.0864C82.1952 65.4944 83.2462 64.0384 83.7072 63.8504C84.5422 63.5114 109.911 21.6944 109.911 20.6564C109.911 20.3564 111.485 17.5004 113.408 14.3104C115.332 11.1204 116.907 7.34239 116.908 5.91539C116.912 2.49639 114.025 0.0103859 110.05 0.0103859C106.429 0.0103859 107.432 -1.39561 89.7112 28.5104C84.1712 37.8604 79.0622 46.1314 78.3592 46.8904C76.0972 49.3304 72.6022 47.4024 69.3002 41.8954C66.1882 36.7064 66.1882 36.7064 70.5502 29.3294C72.9482 25.2724 74.9112 21.6874 74.9112 21.3624C74.9112 21.0374 76.4862 18.1794 78.4112 15.0104C82.4802 8.31239 83.1072 2.72039 79.9772 1.04539C74.9612 -1.63861 71.0392 1.00539 65.9352 10.5114C60.7682 20.1324 58.7982 23.0584 57.8722 22.4864C57.3952 22.1914 54.6812 17.8014 51.8402 12.7304C45.5772 1.54739 44.2902 0.0103859 41.1902 0.0103859C33.9102 0.0103859 32.8322 5.82739 38.4112 15.0104C40.3362 18.1794 41.9112 21.0394 41.9112 21.3664C41.9112 21.6934 43.8892 25.2044 46.3072 29.1704C50.7032 36.3794 50.7032 36.3794 48.1802 40.4454C44.7792 45.9234 42.8662 48.0104 41.2442 48.0104C40.4972 48.0104 38.2622 45.4234 36.2772 42.2604C34.2922 39.0984 32.1442 36.0604 31.5032 35.5104C30.1422 34.3414 17.9112 14.6324 17.9112 13.6084C17.9112 12.5204 10.7742 1.59539 9.52818 0.775386C7.47418 -0.575614 3.23918 -0.00961363 1.56618 1.83939ZM148.911 41.5104C148.911 68.0104 148.911 68.0104 151.911 68.0104C154.244 68.0104 154.911 67.5664 154.911 66.0104C154.911 63.5384 155.089 63.5384 159.137 66.0064C163.824 68.8644 173.085 68.7284 178.391 65.7234C184.213 62.4264 186.874 57.1014 186.895 48.7104C186.918 39.0534 183.754 33.9314 175.679 30.5584C170.424 28.3624 164.986 28.6384 159.58 31.3744C154.911 33.7384 154.911 33.7384 154.911 24.3744C154.911 15.0104 154.911 15.0104 151.911 15.0104C148.911 15.0104 148.911 15.0104 148.911 41.5104ZM366.911 16.9034C366.911 17.3944 367.603 18.0624 368.449 18.3864C369.295 18.7114 371.103 21.3474 372.467 24.2434C374.782 29.1624 374.903 30.1924 374.288 39.8244C373.69 49.1954 373.814 50.3874 375.647 52.8674C377.664 55.5944 377.664 55.5974 375.67 58.0534C373.84 60.3084 373.732 61.4294 374.36 71.6694C374.969 81.6064 374.83 83.2494 373.084 86.6694C372.006 88.7824 370.176 91.3674 369.017 92.4154C365.985 95.1574 366.398 96.0104 370.756 96.0104C374.938 96.0104 376.553 94.7134 379.43 89.0394C380.935 86.0724 381.097 83.9284 380.544 74.2504C379.91 63.1554 379.946 62.8844 382.359 60.4714C383.713 59.1184 385.291 58.0104 385.866 58.0104C386.441 58.0104 386.911 56.8854 386.911 55.5104C386.911 54.0114 386.339 53.0104 385.484 53.0104C384.698 53.0104 383.137 51.8414 382.013 50.4124C380.144 48.0364 380.021 46.9014 380.58 37.1334C381.215 26.0394 380.442 22.6724 376.135 17.7604C374.535 15.9344 366.911 15.2264 366.911 16.9034ZM113.411 30.5064C101.934 34.5484 98.0932 51.9434 106.478 61.9074C112.03 68.5064 126.719 70.1244 134.286 64.9704C138.367 62.1904 138.86 60.0834 135.866 58.2144C134.124 57.1264 133.44 57.2354 131.264 58.9474C127.876 61.6124 122.827 62.4674 118.641 61.0864C115.127 59.9264 110.666 55.8234 109.589 52.7604C109.02 51.1414 110.166 51.0104 124.942 51.0104C142.888 51.0104 141.793 51.5984 139.837 43.0104C139.101 39.7774 137.67 37.4594 134.754 34.7774C128.623 29.1384 121.402 27.6934 113.411 30.5064ZM216.911 38.5774C216.911 43.9264 216.823 44.1134 214.661 43.3274C213.423 42.8784 210.279 42.5134 207.673 42.5174C203.718 42.5234 202.425 43.0344 199.849 45.6104C194.193 51.2664 194.952 62.2354 201.264 66.0844C204.706 68.1824 211.853 68.6474 214.977 66.9754C216.31 66.2614 216.911 66.2614 216.911 66.9754C216.911 67.5444 218.036 68.0104 219.411 68.0104C221.911 68.0104 221.911 68.0104 221.911 50.5104C221.911 33.0104 221.911 33.0104 219.411 33.0104C217.044 33.0104 216.911 33.3064 216.911 38.5774ZM128.619 38.9144C130.824 40.5104 132.874 42.7604 133.176 43.9144C133.71 45.9594 133.421 46.0104 121.349 46.0104C109.988 46.0104 109.026 45.8674 109.609 44.2604C112.637 35.9114 121.164 33.5134 128.619 38.9144ZM173.944 37.5274C178.294 39.7774 180.221 44.2534 179.675 50.8404C179.16 57.0534 177.325 59.2064 170.912 61.1284C163.73 63.2804 155.843 57.1664 155.735 49.3654C155.593 39.0674 165.042 32.9244 173.944 37.5274ZM307.911 55.0304C307.911 70.2314 307.911 70.2314 319.014 69.8514C329.71 69.4854 330.206 69.3694 332.514 66.6854C335.187 63.5784 335.464 61.4754 333.746 57.3254C333.105 55.7774 332.69 52.2494 332.823 49.4854C333.196 41.7894 331.338 40.5964 318.309 40.1694C307.911 39.8284 307.911 39.8284 307.911 55.0304ZM337.911 55.1234C337.911 70.2374 337.911 70.2374 348.161 69.8454C363.18 69.2704 367.911 65.7084 367.911 54.9744C367.911 44.1024 362.163 40.0104 346.891 40.0104C337.911 40.0104 337.911 40.0104 337.911 55.1234ZM234.224 43.1124C229.138 44.5844 226.911 48.2784 226.911 55.2454C226.911 60.7334 227.192 61.4914 230.423 64.7224C233.876 68.1754 234.053 68.2284 240.92 67.8404C249.467 67.3574 252.436 65.3534 249.468 62.0734C247.837 60.2714 247.452 60.2184 245.562 61.5424C242.135 63.9424 237.193 63.3894 234.116 60.2604C231.411 57.5104 231.411 57.5104 241.661 57.2254C251.911 56.9404 251.911 56.9404 251.911 53.1984C251.911 44.6944 244.118 40.2504 234.224 43.1124ZM251.911 43.0814C251.911 43.6704 254.274 49.5394 257.161 56.1234C262.199 67.6134 262.524 68.0844 265.225 67.8034C267.768 67.5384 268.511 66.4524 272.949 56.5104C278.587 43.8804 278.924 42.0104 275.557 42.0104C273.553 42.0104 272.611 43.3524 269.223 51.0294C265.243 60.0484 265.243 60.0484 261.135 51.0294C257.52 43.0914 256.72 42.0104 254.469 42.0104C253.062 42.0104 251.911 42.4924 251.911 43.0814ZM324.47 47.5104C326.391 48.9954 326.391 49.0254 324.47 50.5104C323.402 51.3354 320.815 52.0104 318.72 52.0104C315.154 52.0104 314.911 51.8184 314.911 49.0104C314.911 46.2024 315.154 46.0104 318.72 46.0104C320.815 46.0104 323.402 46.6854 324.47 47.5104ZM214.105 50.0504C216.649 52.5944 217.044 53.6144 216.525 56.3004C214.531 66.6244 201.096 64.2674 201.793 53.7154C201.959 51.1844 206.411 47.0104 208.942 47.0104C210.11 47.0104 212.433 48.3784 214.105 50.0504ZM244.605 49.4254C246.148 50.7534 247.128 52.1244 246.781 52.4714C246.435 52.8184 242.835 52.9694 238.781 52.8064C231.411 52.5104 231.411 52.5104 234.116 49.7604C237.457 46.3634 240.919 46.2524 244.605 49.4254ZM356.84 47.9724C359.885 49.6024 361.368 54.4924 359.895 58.0484C358.27 61.9724 356.195 63.0104 349.977 63.0104C344.911 63.0104 344.911 63.0104 344.911 55.0104C344.911 47.0104 344.911 47.0104 349.977 47.0104C352.763 47.0104 355.851 47.4434 356.84 47.9724ZM286.911 59.0104C284.193 61.7284 284.305 66.4724 287.134 68.4534C289.768 70.2994 296.012 70.5094 297.711 68.8104C299.265 67.2564 299.265 59.7644 297.711 58.2104C295.759 56.2584 289.175 56.7464 286.911 59.0104ZM326.605 59.6554C327.53 62.0674 324.235 64.0104 319.22 64.0104C315.099 64.0104 314.911 63.8794 314.911 61.0104C314.911 58.0384 314.963 58.0104 320.442 58.0104C324.653 58.0104 326.124 58.4034 326.605 59.6554Z" fill="#00FFFF"/>
<path fill-rule="evenodd" clip-rule="evenodd" d="M1.56621 1.83939C-0.87379 4.53539 -0.471791 7.60039 3.14421 13.8884C4.92321 16.9804 7.06021 20.7664 7.89421 22.3014C11.7612 29.4184 22.3582 46.6144 23.4292 47.5104C24.0862 48.0604 27.4412 53.2354 30.8832 59.0104C34.3252 64.7854 37.6522 69.8414 38.2762 70.2454C38.9002 70.6494 40.6262 70.9864 42.1102 70.9954C45.1812 71.0124 47.2142 68.6414 53.8882 57.2604C56.2262 53.2734 58.2922 50.0104 58.4792 50.0104C58.6662 50.0104 61.3992 54.3334 64.5522 59.6174C67.7052 64.9004 71.2922 69.6824 72.5242 70.2434C75.8262 71.7484 79.6702 70.3764 81.3722 67.0864C82.1952 65.4944 83.2462 64.0384 83.7072 63.8504C84.5422 63.5114 109.911 21.6944 109.911 20.6564C109.911 20.3564 111.485 17.5004 113.408 14.3104C115.332 11.1204 116.907 7.34239 116.908 5.91539C116.912 2.49639 114.025 0.0103859 110.05 0.0103859C106.429 0.0103859 107.432 -1.39561 89.7112 28.5104C84.1712 37.8604 79.0622 46.1314 78.3592 46.8904C76.0972 49.3304 72.6022 47.4024 69.3002 41.8954C66.1882 36.7064 66.1882 36.7064 70.5502 29.3294C72.9482 25.2724 74.9112 21.6874 74.9112 21.3624C74.9112 21.0374 76.4862 18.1794 78.4112 15.0104C83.8952 5.98239 82.9042 0.0103859 75.9202 0.0103859C73.4482 0.0103859 69.2532 4.29939 66.4312 9.71239C62.3082 17.6234 58.7032 23.0004 57.8692 22.4844C57.3942 22.1904 54.6812 17.8014 51.8402 12.7304C45.5772 1.54739 44.2902 0.0103859 41.1902 0.0103859C33.9102 0.0103859 32.8322 5.82739 38.4112 15.0104C40.3362 18.1794 41.9112 21.0394 41.9112 21.3664C41.9112 21.6934 43.8892 25.2044 46.3072 29.1704C50.7032 36.3794 50.7032 36.3794 48.1802 40.4454C44.7742 45.9314 42.8662 48.0104 41.2342 48.0104C40.4822 48.0104 38.0602 45.2134 35.8512 41.7954C33.6412 38.3774 31.4932 35.3394 31.0762 35.0454C30.1352 34.3814 17.9112 14.5384 17.9112 13.6754C17.9112 12.6604 10.6822 1.57739 9.49721 0.775386C7.49521 -0.578614 3.23721 -0.00761366 1.56621 1.83939ZM148.911 41.5104C148.911 68.0104 148.911 68.0104 151.911 68.0104C154.244 68.0104 154.911 67.5664 154.911 66.0104C154.911 63.5384 155.089 63.5384 159.137 66.0064C163.824 68.8644 173.085 68.7284 178.391 65.7234C184.213 62.4264 186.874 57.1014 186.895 48.7104C186.918 39.0534 183.754 33.9314 175.679 30.5584C170.424 28.3624 164.986 28.6384 159.58 31.3744C154.911 33.7384 154.911 33.7384 154.911 24.3744C154.911 15.0104 154.911 15.0104 151.911 15.0104C148.911 15.0104 148.911 15.0104 148.911 41.5104ZM366.911 16.9034C366.911 17.3944 367.603 18.0624 368.449 18.3864C369.295 18.7114 371.103 21.3474 372.467 24.2434C374.782 29.1624 374.903 30.1924 374.288 39.8244C373.69 49.1954 373.814 50.3874 375.647 52.8674C377.664 55.5944 377.664 55.5974 375.67 58.0534C373.84 60.3084 373.732 61.4294 374.36 71.6694C374.969 81.6064 374.83 83.2494 373.084 86.6694C372.006 88.7824 370.176 91.3674 369.017 92.4154C365.985 95.1574 366.398 96.0104 370.756 96.0104C374.938 96.0104 376.553 94.7134 379.43 89.0394C380.935 86.0724 381.097 83.9284 380.544 74.2504C379.91 63.1554 379.946 62.8844 382.359 60.4714C383.713 59.1184 385.291 58.0104 385.866 58.0104C386.441 58.0104 386.911 56.8854 386.911 55.5104C386.911 54.0114 386.339 53.0104 385.484 53.0104C384.698 53.0104 383.137 51.8414 382.013 50.4124C380.144 48.0364 380.021 46.9014 380.58 37.1334C381.215 26.0394 380.442 22.6724 376.135 17.7604C374.535 15.9344 366.911 15.2264 366.911 16.9034ZM113.411 30.5064C101.934 34.5484 98.0932 51.9434 106.478 61.9074C112.03 68.5064 126.719 70.1244 134.286 64.9704C138.367 62.1904 138.86 60.0834 135.866 58.2144C134.124 57.1264 133.44 57.2354 131.264 58.9474C127.876 61.6124 122.827 62.4674 118.641 61.0864C115.127 59.9264 110.666 55.8234 109.589 52.7604C109.02 51.1414 110.166 51.0104 124.942 51.0104C142.888 51.0104 141.793 51.5984 139.837 43.0104C139.101 39.7774 137.67 37.4594 134.754 34.7774C128.623 29.1384 121.402 27.6934 113.411 30.5064ZM216.911 38.5774C216.911 43.9264 216.823 44.1134 214.661 43.3274C213.423 42.8784 210.279 42.5134 207.673 42.5174C203.718 42.5234 202.425 43.0344 199.849 45.6104C194.193 51.2664 194.952 62.2354 201.264 66.0844C204.706 68.1824 211.853 68.6474 214.977 66.9754C216.31 66.2614 216.911 66.2614 216.911 66.9754C216.911 67.5444 218.036 68.0104 219.411 68.0104C221.911 68.0104 221.911 68.0104 221.911 50.5104C221.911 33.0104 221.911 33.0104 219.411 33.0104C217.044 33.0104 216.911 33.3064 216.911 38.5774ZM128.619 38.9144C130.824 40.5104 132.874 42.7604 133.176 43.9144C133.71 45.9594 133.421 46.0104 121.349 46.0104C109.988 46.0104 109.026 45.8674 109.609 44.2604C112.637 35.9114 121.164 33.5134 128.619 38.9144ZM173.944 37.5274C178.294 39.7774 180.221 44.2534 179.675 50.8404C179.16 57.0534 177.325 59.2064 170.912 61.1284C163.73 63.2804 155.843 57.1664 155.735 49.3654C155.593 39.0674 165.042 32.9244 173.944 37.5274ZM307.911 55.0304C307.911 70.2314 307.911 70.2314 319.014 69.8514C329.71 69.4854 330.206 69.3694 332.514 66.6854C335.187 63.5784 335.464 61.4754 333.746 57.3254C333.105 55.7774 332.69 52.2494 332.823 49.4854C333.196 41.7894 331.338 40.5964 318.309 40.1694C307.911 39.8284 307.911 39.8284 307.911 55.0304ZM337.911 55.1234C337.911 70.2374 337.911 70.2374 348.161 69.8454C363.18 69.2704 367.911 65.7084 367.911 54.9744C367.911 44.1024 362.163 40.0104 346.891 40.0104C337.911 40.0104 337.911 40.0104 337.911 55.1234ZM234.224 43.1124C229.138 44.5844 226.911 48.2784 226.911 55.2454C226.911 60.7334 227.192 61.4914 230.423 64.7224C233.876 68.1754 234.053 68.2284 240.92 67.8404C249.467 67.3574 252.436 65.3534 249.468 62.0734C247.837 60.2714 247.452 60.2184 245.562 61.5424C242.135 63.9424 237.193 63.3894 234.116 60.2604C231.411 57.5104 231.411 57.5104 241.661 57.2254C251.911 56.9404 251.911 56.9404 251.911 53.1984C251.911 44.6944 244.118 40.2504 234.224 43.1124ZM251.911 43.0814C251.911 43.6704 254.274 49.5394 257.161 56.1234C262.199 67.6134 262.524 68.0844 265.225 67.8034C267.768 67.5384 268.511 66.4524 272.949 56.5104C278.587 43.8804 278.924 42.0104 275.557 42.0104C273.553 42.0104 272.611 43.3524 269.223 51.0294C265.243 60.0484 265.243 60.0484 261.135 51.0294C257.52 43.0914 256.72 42.0104 254.469 42.0104C253.062 42.0104 251.911 42.4924 251.911 43.0814ZM324.47 47.5104C326.391 48.9954 326.391 49.0254 324.47 50.5104C323.402 51.3354 320.815 52.0104 318.72 52.0104C315.154 52.0104 314.911 51.8184 314.911 49.0104C314.911 46.2024 315.154 46.0104 318.72 46.0104C320.815 46.0104 323.402 46.6854 324.47 47.5104ZM214.105 50.0504C216.649 52.5944 217.044 53.6144 216.525 56.3004C214.531 66.6244 201.096 64.2674 201.793 53.7154C201.959 51.1844 206.411 47.0104 208.942 47.0104C210.11 47.0104 212.433 48.3784 214.105 50.0504ZM244.605 49.4254C246.148 50.7534 247.128 52.1244 246.781 52.4714C246.435 52.8184 242.835 52.9694 238.781 52.8064C231.411 52.5104 231.411 52.5104 234.116 49.7604C237.457 46.3634 240.919 46.2524 244.605 49.4254ZM356.84 47.9724C359.885 49.6024 361.368 54.4924 359.895 58.0484C358.27 61.9724 356.195 63.0104 349.977 63.0104C344.911 63.0104 344.911 63.0104 344.911 55.0104C344.911 47.0104 344.911 47.0104 349.977 47.0104C352.763 47.0104 355.851 47.4434 356.84 47.9724ZM286.911 59.0104C284.193 61.7284 284.305 66.4724 287.134 68.4534C289.768 70.2994 296.012 70.5094 297.711 68.8104C299.265 67.2564 299.265 59.7644 297.711 58.2104C295.759 56.2584 289.175 56.7464 286.911 59.0104ZM326.605 59.6554C327.53 62.0674 324.235 64.0104 319.22 64.0104C315.099 64.0104 314.911 63.8794 314.911 61.0104C314.911 58.0384 314.963 58.0104 320.442 58.0104C324.653 58.0104 326.124 58.4034 326.605 59.6554Z" fill="#207052"/>
<path fill-rule="evenodd" clip-rule="evenodd" d="M36.6612 1.06938C33.7422 2.80438 34.4572 8.50238 38.4112 15.0104C40.3362 18.1794 41.9112 21.0424 41.9112 21.3734C41.9112 22.4084 50.1162 35.4354 51.4382 36.4994C53.2762 37.9794 58.0252 45.9214 58.9042 48.9864C60.4332 54.3164 70.9372 69.9784 73.3972 70.5964C76.9192 71.4804 79.7522 70.2184 81.4012 67.0294C82.2082 65.4684 83.2462 64.0384 83.7072 63.8504C84.5422 63.5114 109.911 21.6944 109.911 20.6564C109.911 20.3564 111.485 17.5004 113.408 14.3104C115.332 11.1204 116.907 7.34238 116.908 5.91538C116.912 2.51038 114.029 0.0103812 110.097 0.0103812C106.52 0.0103812 107.262 -1.02762 89.7292 28.5104C84.1782 37.8604 79.0622 46.1314 78.3592 46.8904C76.2942 49.1184 72.5292 47.4544 70.1812 43.2764C69.0072 41.1884 66.8792 38.1364 65.4532 36.4944C64.0262 34.8534 61.6112 31.0354 60.0862 28.0104C54.9942 17.9124 45.9732 2.30538 44.6842 1.36438C42.8382 0.0163813 38.6872 -0.136619 36.6612 1.06938ZM148.911 41.5104C148.911 68.0104 148.911 68.0104 151.911 68.0104C154.244 68.0104 154.911 67.5664 154.911 66.0104C154.911 63.5384 155.089 63.5384 159.137 66.0064C163.824 68.8644 173.085 68.7284 178.391 65.7234C184.213 62.4264 186.874 57.1014 186.895 48.7104C186.918 39.0534 183.754 33.9314 175.679 30.5584C170.424 28.3624 164.986 28.6384 159.58 31.3744C154.911 33.7384 154.911 33.7384 154.911 24.3744C154.911 15.0104 154.911 15.0104 151.911 15.0104C148.911 15.0104 148.911 15.0104 148.911 41.5104ZM113.411 30.5064C101.934 34.5484 98.0932 51.9434 106.478 61.9074C112.03 68.5064 126.719 70.1244 134.286 64.9704C138.367 62.1904 138.86 60.0834 135.866 58.2144C134.124 57.1264 133.44 57.2354 131.264 58.9474C127.876 61.6124 122.827 62.4674 118.641 61.0864C115.127 59.9264 110.666 55.8234 109.589 52.7604C109.02 51.1414 110.166 51.0104 124.942 51.0104C142.888 51.0104 141.793 51.5984 139.837 43.0104C139.101 39.7774 137.67 37.4594 134.754 34.7774C128.623 29.1384 121.402 27.6934 113.411 30.5064ZM216.911 38.5774C216.911 43.9264 216.823 44.1134 214.661 43.3274C213.423 42.8784 210.279 42.5134 207.673 42.5174C203.718 42.5234 202.425 43.0344 199.849 45.6104C194.193 51.2664 194.952 62.2354 201.264 66.0844C204.706 68.1824 211.853 68.6474 214.977 66.9754C216.31 66.2614 216.911 66.2614 216.911 66.9754C216.911 67.5444 218.036 68.0104 219.411 68.0104C221.911 68.0104 221.911 68.0104 221.911 50.5104C221.911 33.0104 221.911 33.0104 219.411 33.0104C217.044 33.0104 216.911 33.3064 216.911 38.5774ZM128.619 38.9144C130.824 40.5104 132.874 42.7604 133.176 43.9144C133.71 45.9594 133.421 46.0104 121.349 46.0104C109.988 46.0104 109.026 45.8674 109.609 44.2604C112.637 35.9114 121.164 33.5134 128.619 38.9144ZM173.944 37.5274C178.294 39.7774 180.221 44.2534 179.675 50.8404C179.16 57.0534 177.325 59.2064 170.912 61.1284C163.73 63.2804 155.843 57.1664 155.735 49.3654C155.593 39.0674 165.042 32.9244 173.944 37.5274ZM307.911 55.0304C307.911 70.2314 307.911 70.2314 319.014 69.8514C329.71 69.4854 330.206 69.3694 332.514 66.6854C335.187 63.5784 335.464 61.4754 333.746 57.3254C333.105 55.7774 332.69 52.2494 332.823 49.4854C333.196 41.7894 331.338 40.5964 318.309 40.1694C307.911 39.8284 307.911 39.8284 307.911 55.0304ZM337.911 55.1234C337.911 70.2374 337.911 70.2374 348.161 69.8454C363.18 69.2704 367.911 65.7084 367.911 54.9744C367.911 44.1024 362.163 40.0104 346.891 40.0104C337.911 40.0104 337.911 40.0104 337.911 55.1234ZM234.224 43.1124C229.138 44.5844 226.911 48.2784 226.911 55.2454C226.911 60.7334 227.192 61.4914 230.423 64.7224C233.876 68.1754 234.053 68.2284 240.92 67.8404C249.467 67.3574 252.436 65.3534 249.468 62.0734C247.837 60.2714 247.452 60.2184 245.562 61.5424C242.135 63.9424 237.193 63.3894 234.116 60.2604C231.411 57.5104 231.411 57.5104 241.661 57.2254C251.911 56.9404 251.911 56.9404 251.911 53.1984C251.911 44.6944 244.118 40.2504 234.224 43.1124ZM251.911 43.0814C251.911 43.6704 254.274 49.5394 257.161 56.1234C262.199 67.6134 262.524 68.0844 265.225 67.8034C267.768 67.5384 268.511 66.4524 272.949 56.5104C278.587 43.8804 278.924 42.0104 275.557 42.0104C273.553 42.0104 272.611 43.3524 269.223 51.0294C265.243 60.0484 265.243 60.0484 261.135 51.0294C257.52 43.0914 256.72 42.0104 254.469 42.0104C253.062 42.0104 251.911 42.4924 251.911 43.0814ZM324.47 47.5104C326.391 48.9954 326.391 49.0254 324.47 50.5104C323.402 51.3354 320.815 52.0104 318.72 52.0104C315.154 52.0104 314.911 51.8184 314.911 49.0104C314.911 46.2024 315.154 46.0104 318.72 46.0104C320.815 46.0104 323.402 46.6854 324.47 47.5104ZM214.105 50.0504C216.649 52.5944 217.044 53.6144 216.525 56.3004C214.531 66.6244 201.096 64.2674 201.793 53.7154C201.959 51.1844 206.411 47.0104 208.942 47.0104C210.11 47.0104 212.433 48.3784 214.105 50.0504ZM244.605 49.4254C246.148 50.7534 247.128 52.1244 246.781 52.4714C246.435 52.8184 242.835 52.9694 238.781 52.8064C231.411 52.5104 231.411 52.5104 234.116 49.7604C237.457 46.3634 240.919 46.2524 244.605 49.4254ZM356.84 47.9724C359.885 49.6024 361.368 54.4924 359.895 58.0484C358.27 61.9724 356.195 63.0104 349.977 63.0104C344.911 63.0104 344.911 63.0104 344.911 55.0104C344.911 47.0104 344.911 47.0104 349.977 47.0104C352.763 47.0104 355.851 47.4434 356.84 47.9724ZM296.661 58.8434C297.623 59.8524 298.588 60.5384 298.804 60.3674C299.394 59.9024 296.797 57.0104 295.789 57.0104C295.306 57.0104 295.699 57.8354 296.661 58.8434ZM326.605 59.6554C327.53 62.0674 324.235 64.0104 319.22 64.0104C315.099 64.0104 314.911 63.8794 314.911 61.0104C314.911 58.0384 314.963 58.0104 320.442 58.0104C324.653 58.0104 326.124 58.4034 326.605 59.6554Z" fill="#74C4A6"/>
<path fill-rule="evenodd" clip-rule="evenodd" d="M148.911 41.5104C148.911 68.0104 148.911 68.0104 151.911 68.0104C154.244 68.0104 154.911 67.5664 154.911 66.0104C154.911 63.5384 155.089 63.5384 159.137 66.0064C163.824 68.8644 173.085 68.7284 178.391 65.7234C184.213 62.4264 186.874 57.1014 186.895 48.7104C186.918 39.0534 183.754 33.9314 175.679 30.5584C170.424 28.3624 164.986 28.6384 159.58 31.3744C154.911 33.7384 154.911 33.7384 154.911 24.3744C154.911 15.0104 154.911 15.0104 151.911 15.0104C148.911 15.0104 148.911 15.0104 148.911 41.5104ZM113.411 30.5064C101.934 34.5484 98.0932 51.9434 106.478 61.9074C112.03 68.5064 126.719 70.1244 134.286 64.9704C138.367 62.1904 138.86 60.0834 135.866 58.2144C134.124 57.1264 133.44 57.2354 131.264 58.9474C127.876 61.6124 122.827 62.4674 118.641 61.0864C115.127 59.9264 110.666 55.8234 109.589 52.7604C109.02 51.1414 110.166 51.0104 124.942 51.0104C142.888 51.0104 141.793 51.5984 139.837 43.0104C139.101 39.7774 137.67 37.4594 134.754 34.7774C128.623 29.1384 121.402 27.6934 113.411 30.5064ZM216.911 38.5774C216.911 43.9264 216.823 44.1134 214.661 43.3274C213.423 42.8784 210.279 42.5134 207.673 42.5174C203.718 42.5234 202.425 43.0344 199.849 45.6104C194.193 51.2664 194.952 62.2354 201.264 66.0844C204.706 68.1824 211.853 68.6474 214.977 66.9754C216.31 66.2614 216.911 66.2614 216.911 66.9754C216.911 67.5444 218.036 68.0104 219.411 68.0104C221.911 68.0104 221.911 68.0104 221.911 50.5104C221.911 33.0104 221.911 33.0104 219.411 33.0104C217.044 33.0104 216.911 33.3064 216.911 38.5774ZM128.619 38.9144C130.824 40.5104 132.874 42.7604 133.176 43.9144C133.71 45.9594 133.421 46.0104 121.349 46.0104C109.988 46.0104 109.026 45.8674 109.609 44.2604C112.637 35.9114 121.164 33.5134 128.619 38.9144ZM173.944 37.5274C178.294 39.7774 180.221 44.2534 179.675 50.8404C179.16 57.0534 177.325 59.2064 170.912 61.1284C163.73 63.2804 155.843 57.1664 155.735 49.3654C155.593 39.0674 165.042 32.9244 173.944 37.5274ZM307.911 55.0304C307.911 70.2314 307.911 70.2314 319.014 69.8514C329.71 69.4854 330.206 69.3694 332.514 66.6854C335.187 63.5784 335.464 61.4754 333.746 57.3254C333.105 55.7774 332.69 52.2494 332.823 49.4854C333.196 41.7894 331.338 40.5964 318.309 40.1694C307.911 39.8284 307.911 39.8284 307.911 55.0304ZM337.911 55.1234C337.911 70.2374 337.911 70.2374 348.161 69.8454C363.18 69.2704 367.911 65.7084 367.911 54.9744C367.911 44.1024 362.163 40.0104 346.891 40.0104C337.911 40.0104 337.911 40.0104 337.911 55.1234ZM234.224 43.1124C229.138 44.5844 226.911 48.2784 226.911 55.2454C226.911 60.7334 227.192 61.4914 230.423 64.7224C233.876 68.1754 234.053 68.2284 240.92 67.8404C249.467 67.3574 252.436 65.3534 249.468 62.0734C247.837 60.2714 247.452 60.2184 245.562 61.5424C242.135 63.9424 237.193 63.3894 234.116 60.2604C231.411 57.5104 231.411 57.5104 241.661 57.2254C251.911 56.9404 251.911 56.9404 251.911 53.1984C251.911 44.6944 244.118 40.2504 234.224 43.1124ZM251.911 43.0814C251.911 43.6704 254.274 49.5394 257.161 56.1234C262.199 67.6134 262.524 68.0844 265.225 67.8034C267.768 67.5384 268.511 66.4524 272.949 56.5104C278.587 43.8804 278.924 42.0104 275.557 42.0104C273.553 42.0104 272.611 43.3524 269.223 51.0294C265.243 60.0484 265.243 60.0484 261.135 51.0294C257.52 43.0914 256.72 42.0104 254.469 42.0104C253.062 42.0104 251.911 42.4924 251.911 43.0814ZM324.47 47.5104C326.391 48.9954 326.391 49.0254 324.47 50.5104C323.402 51.3354 320.815 52.0104 318.72 52.0104C315.154 52.0104 314.911 51.8184 314.911 49.0104C314.911 46.2024 315.154 46.0104 318.72 46.0104C320.815 46.0104 323.402 46.6854 324.47 47.5104ZM214.105 50.0504C216.649 52.5944 217.044 53.6144 216.525 56.3004C214.531 66.6244 201.096 64.2674 201.793 53.7154C201.959 51.1844 206.411 47.0104 208.942 47.0104C210.11 47.0104 212.433 48.3784 214.105 50.0504ZM244.605 49.4254C246.148 50.7534 247.128 52.1244 246.781 52.4714C246.435 52.8184 242.835 52.9694 238.781 52.8064C231.411 52.5104 231.411 52.5104 234.116 49.7604C237.457 46.3634 240.919 46.2524 244.605 49.4254ZM356.84 47.9724C359.885 49.6024 361.368 54.4924 359.895 58.0484C358.27 61.9724 356.195 63.0104 349.977 63.0104C344.911 63.0104 344.911 63.0104 344.911 55.0104C344.911 47.0104 344.911 47.0104 349.977 47.0104C352.763 47.0104 355.851 47.4434 356.84 47.9724ZM296.661 58.8434C297.623 59.8524 298.588 60.5384 298.804 60.3674C299.394 59.9024 296.797 57.0104 295.789 57.0104C295.306 57.0104 295.699 57.8354 296.661 58.8434ZM326.605 59.6554C327.53 62.0674 324.235 64.0104 319.22 64.0104C315.099 64.0104 314.911 63.8794 314.911 61.0104C314.911 58.0384 314.963 58.0104 320.442 58.0104C324.653 58.0104 326.124 58.4034 326.605 59.6554Z" fill="#40BF80"/>
<path fill-rule="evenodd" clip-rule="evenodd" d="M148.911 41.5104C148.911 68.0104 148.911 68.0104 151.911 68.0104C154.244 68.0104 154.911 67.5664 154.911 66.0104C154.911 63.5384 155.089 63.5384 159.137 66.0064C163.824 68.8644 173.085 68.7284 178.391 65.7234C184.213 62.4264 186.874 57.1014 186.895 48.7104C186.918 39.0534 183.754 33.9314 175.679 30.5584C170.424 28.3624 164.986 28.6384 159.58 31.3744C154.911 33.7384 154.911 33.7384 154.911 24.3744C154.911 15.0104 154.911 15.0104 151.911 15.0104C148.911 15.0104 148.911 15.0104 148.911 41.5104ZM113.411 30.5064C101.934 34.5484 98.0932 51.9434 106.478 61.9074C112.03 68.5064 126.719 70.1244 134.286 64.9704C138.367 62.1904 138.86 60.0834 135.866 58.2144C134.124 57.1264 133.44 57.2354 131.264 58.9474C127.876 61.6124 122.827 62.4674 118.641 61.0864C115.127 59.9264 110.666 55.8234 109.589 52.7604C109.02 51.1414 110.166 51.0104 124.942 51.0104C142.888 51.0104 141.793 51.5984 139.837 43.0104C139.101 39.7774 137.67 37.4594 134.754 34.7774C128.623 29.1384 121.402 27.6934 113.411 30.5064ZM216.911 38.5774C216.911 43.9264 216.823 44.1134 214.661 43.3274C213.423 42.8784 210.279 42.5134 207.673 42.5174C203.718 42.5234 202.425 43.0344 199.849 45.6104C194.193 51.2664 194.952 62.2354 201.264 66.0844C204.706 68.1824 211.853 68.6474 214.977 66.9754C216.31 66.2614 216.911 66.2614 216.911 66.9754C216.911 67.5444 218.036 68.0104 219.411 68.0104C221.911 68.0104 221.911 68.0104 221.911 50.5104C221.911 33.0104 221.911 33.0104 219.411 33.0104C217.044 33.0104 216.911 33.3064 216.911 38.5774ZM128.619 38.9144C130.824 40.5104 132.874 42.7604 133.176 43.9144C133.71 45.9594 133.421 46.0104 121.349 46.0104C109.988 46.0104 109.026 45.8674 109.609 44.2604C112.637 35.9114 121.164 33.5134 128.619 38.9144ZM173.944 37.5274C178.294 39.7774 180.221 44.2534 179.675 50.8404C179.16 57.0534 177.325 59.2064 170.912 61.1284C163.73 63.2804 155.843 57.1664 155.735 49.3654C155.593 39.0674 165.042 32.9244 173.944 37.5274ZM307.911 55.0304C307.911 70.2314 307.911 70.2314 319.014 69.8514C329.71 69.4854 330.206 69.3694 332.514 66.6854C335.187 63.5784 335.464 61.4754 333.746 57.3254C333.105 55.7774 332.69 52.2494 332.823 49.4854C333.196 41.7894 331.338 40.5964 318.309 40.1694C307.911 39.8284 307.911 39.8284 307.911 55.0304ZM337.911 55.1234C337.911 70.2374 337.911 70.2374 348.161 69.8454C363.18 69.2704 367.911 65.7084 367.911 54.9744C367.911 44.1024 362.163 40.0104 346.891 40.0104C337.911 40.0104 337.911 40.0104 337.911 55.1234ZM234.224 43.1124C229.138 44.5844 226.911 48.2784 226.911 55.2454C226.911 60.7334 227.192 61.4914 230.423 64.7224C233.876 68.1754 234.053 68.2284 240.92 67.8404C249.467 67.3574 252.436 65.3534 249.468 62.0734C247.837 60.2714 247.452 60.2184 245.562 61.5424C242.135 63.9424 237.193 63.3894 234.116 60.2604C231.411 57.5104 231.411 57.5104 241.661 57.2254C251.911 56.9404 251.911 56.9404 251.911 53.1984C251.911 44.6944 244.118 40.2504 234.224 43.1124ZM251.911 43.0814C251.911 43.6704 254.274 49.5394 257.161 56.1234C262.199 67.6134 262.524 68.0844 265.225 67.8034C267.768 67.5384 268.511 66.4524 272.949 56.5104C278.587 43.8804 278.924 42.0104 275.557 42.0104C273.553 42.0104 272.611 43.3524 269.223 51.0294C265.243 60.0484 265.243 60.0484 261.135 51.0294C257.52 43.0914 256.72 42.0104 254.469 42.0104C253.062 42.0104 251.911 42.4924 251.911 43.0814ZM324.47 47.5104C326.391 48.9954 326.391 49.0254 324.47 50.5104C323.402 51.3354 320.815 52.0104 318.72 52.0104C315.154 52.0104 314.911 51.8184 314.911 49.0104C314.911 46.2024 315.154 46.0104 318.72 46.0104C320.815 46.0104 323.402 46.6854 324.47 47.5104ZM214.105 50.0504C216.649 52.5944 217.044 53.6144 216.525 56.3004C214.531 66.6244 201.096 64.2674 201.793 53.7154C201.959 51.1844 206.411 47.0104 208.942 47.0104C210.11 47.0104 212.433 48.3784 214.105 50.0504ZM244.605 49.4254C246.148 50.7534 247.128 52.1244 246.781 52.4714C246.435 52.8184 242.835 52.9694 238.781 52.8064C231.411 52.5104 231.411 52.5104 234.116 49.7604C237.457 46.3634 240.919 46.2524 244.605 49.4254ZM356.84 47.9724C359.885 49.6024 361.368 54.4924 359.895 58.0484C358.27 61.9724 356.195 63.0104 349.977 63.0104C344.911 63.0104 344.911 63.0104 344.911 55.0104C344.911 47.0104 344.911 47.0104 349.977 47.0104C352.763 47.0104 355.851 47.4434 356.84 47.9724ZM326.605 59.6554C327.53 62.0674 324.235 64.0104 319.22 64.0104C315.099 64.0104 314.911 63.8794 314.911 61.0104C314.911 58.0384 314.963 58.0104 320.442 58.0104C324.653 58.0104 326.124 58.4034 326.605 59.6554Z" fill="#80FF80"/>
<path fill-rule="evenodd" clip-rule="evenodd" d="M148.911 41.5104C148.911 68.0104 148.911 68.0104 151.911 68.0104C154.244 68.0104 154.911 67.5664 154.911 66.0104C154.911 63.5384 155.089 63.5384 159.137 66.0064C163.824 68.8644 173.085 68.7284 178.391 65.7234C184.213 62.4264 186.874 57.1014 186.895 48.7104C186.918 39.0534 183.754 33.9314 175.679 30.5584C170.424 28.3624 164.986 28.6384 159.58 31.3744C154.911 33.7384 154.911 33.7384 154.911 24.3744C154.911 15.0104 154.911 15.0104 151.911 15.0104C148.911 15.0104 148.911 15.0104 148.911 41.5104ZM113.411 30.5064C101.934 34.5484 98.0932 51.9434 106.478 61.9074C112.03 68.5064 126.719 70.1244 134.286 64.9704C138.367 62.1904 138.86 60.0834 135.866 58.2144C134.124 57.1264 133.44 57.2354 131.264 58.9474C127.876 61.6124 122.827 62.4674 118.641 61.0864C115.127 59.9264 110.666 55.8234 109.589 52.7604C109.02 51.1414 110.166 51.0104 124.942 51.0104C142.888 51.0104 141.793 51.5984 139.837 43.0104C139.101 39.7774 137.67 37.4594 134.754 34.7774C128.623 29.1384 121.402 27.6934 113.411 30.5064ZM216.911 38.5774C216.911 43.9264 216.823 44.1134 214.661 43.3274C213.423 42.8784 210.279 42.5134 207.673 42.5174C203.718 42.5234 202.425 43.0344 199.849 45.6104C194.193 51.2664 194.952 62.2354 201.264 66.0844C204.706 68.1824 211.853 68.6474 214.977 66.9754C216.31 66.2614 216.911 66.2614 216.911 66.9754C216.911 67.5444 218.036 68.0104 219.411 68.0104C221.911 68.0104 221.911 68.0104 221.911 50.5104C221.911 33.0104 221.911 33.0104 219.411 33.0104C217.044 33.0104 216.911 33.3064 216.911 38.5774ZM128.619 38.9144C130.824 40.5104 132.874 42.7604 133.176 43.9144C133.71 45.9594 133.421 46.0104 121.349 46.0104C109.988 46.0104 109.026 45.8674 109.609 44.2604C112.637 35.9114 121.164 33.5134 128.619 38.9144ZM173.944 37.5274C178.294 39.7774 180.221 44.2534 179.675 50.8404C179.16 57.0534 177.325 59.2064 170.912 61.1284C163.73 63.2804 155.843 57.1664 155.735 49.3654C155.593 39.0674 165.042 32.9244 173.944 37.5274ZM307.911 55.0304C307.911 70.2314 307.911 70.2314 319.014 69.8514C329.71 69.4854 330.206 69.3694 332.514 66.6854C335.187 63.5784 335.464 61.4754 333.746 57.3254C333.105 55.7774 332.69 52.2494 332.823 49.4854C333.196 41.7894 331.338 40.5964 318.309 40.1694C307.911 39.8284 307.911 39.8284 307.911 55.0304ZM337.911 55.1234C337.911 70.2374 337.911 70.2374 348.161 69.8454C363.18 69.2704 367.911 65.7084 367.911 54.9744C367.911 44.1024 362.163 40.0104 346.891 40.0104C337.911 40.0104 337.911 40.0104 337.911 55.1234ZM234.224 43.1124C229.138 44.5844 226.911 48.2784 226.911 55.2454C226.911 60.7334 227.192 61.4914 230.423 64.7224C233.876 68.1754 234.053 68.2284 240.92 67.8404C249.467 67.3574 252.436 65.3534 249.468 62.0734C247.837 60.2714 247.452 60.2184 245.562 61.5424C242.135 63.9424 237.193 63.3894 234.116 60.2604C231.411 57.5104 231.411 57.5104 241.661 57.2254C251.911 56.9404 251.911 56.9404 251.911 53.1984C251.911 44.6944 244.118 40.2504 234.224 43.1124ZM251.911 43.0814C251.911 43.6704 254.274 49.5394 257.161 56.1234C262.199 67.6134 262.524 68.0844 265.225 67.8034C267.768 67.5384 268.511 66.4524 272.949 56.5104C278.587 43.8804 278.924 42.0104 275.557 42.0104C273.553 42.0104 272.611 43.3524 269.223 51.0294C265.243 60.0484 265.243 60.0484 261.135 51.0294C257.52 43.0914 256.72 42.0104 254.469 42.0104C253.062 42.0104 251.911 42.4924 251.911 43.0814ZM324.47 47.5104C326.391 48.9954 326.391 49.0254 324.47 50.5104C323.402 51.3354 320.815 52.0104 318.72 52.0104C315.154 52.0104 314.911 51.8184 314.911 49.0104C314.911 46.2024 315.154 46.0104 318.72 46.0104C320.815 46.0104 323.402 46.6854 324.47 47.5104ZM214.105 50.0504C216.649 52.5944 217.044 53.6144 216.525 56.3004C214.531 66.6244 201.096 64.2674 201.793 53.7154C201.959 51.1844 206.411 47.0104 208.942 47.0104C210.11 47.0104 212.433 48.3784 214.105 50.0504ZM244.605 49.4254C246.148 50.7534 247.128 52.1244 246.781 52.4714C246.435 52.8184 242.835 52.9694 238.781 52.8064C231.411 52.5104 231.411 52.5104 234.116 49.7604C237.457 46.3634 240.919 46.2524 244.605 49.4254ZM356.84 47.9724C359.885 49.6024 361.368 54.4924 359.895 58.0484C358.27 61.9724 356.195 63.0104 349.977 63.0104C344.911 63.0104 344.911 63.0104 344.911 55.0104C344.911 47.0104 344.911 47.0104 349.977 47.0104C352.763 47.0104 355.851 47.4434 356.84 47.9724ZM326.605 59.6554C327.53 62.0674 324.235 64.0104 319.22 64.0104C315.099 64.0104 314.911 63.8794 314.911 61.0104C314.911 58.0384 314.963 58.0104 320.442 58.0104C324.653 58.0104 326.124 58.4034 326.605 59.6554Z" fill="white"/>
<path fill-rule="evenodd" clip-rule="evenodd" d="M148.911 41.5104C148.911 68.0104 148.911 68.0104 151.911 68.0104C154.244 68.0104 154.911 67.5664 154.911 66.0104C154.911 63.5384 155.089 63.5384 159.137 66.0064C163.824 68.8644 173.085 68.7284 178.391 65.7234C184.213 62.4264 186.874 57.1014 186.895 48.7104C186.918 39.0534 183.754 33.9314 175.679 30.5584C170.424 28.3624 164.986 28.6384 159.58 31.3744C154.911 33.7384 154.911 33.7384 154.911 24.3744C154.911 15.0104 154.911 15.0104 151.911 15.0104C148.911 15.0104 148.911 15.0104 148.911 41.5104ZM113.411 30.5064C101.934 34.5484 98.0932 51.9434 106.478 61.9074C112.03 68.5064 126.719 70.1244 134.286 64.9704C138.367 62.1904 138.86 60.0834 135.866 58.2144C134.124 57.1264 133.44 57.2354 131.264 58.9474C127.876 61.6124 122.827 62.4674 118.641 61.0864C115.127 59.9264 110.666 55.8234 109.589 52.7604C109.02 51.1414 110.166 51.0104 124.942 51.0104C142.888 51.0104 141.793 51.5984 139.837 43.0104C139.101 39.7774 137.67 37.4594 134.754 34.7774C128.623 29.1384 121.402 27.6934 113.411 30.5064ZM216.911 38.5774C216.911 43.9264 216.823 44.1134 214.661 43.3274C213.423 42.8784 210.279 42.5134 207.673 42.5174C203.718 42.5234 202.425 43.0344 199.849 45.6104C194.193 51.2664 194.952 62.2354 201.264 66.0844C204.706 68.1824 211.853 68.6474 214.977 66.9754C216.31 66.2614 216.911 66.2614 216.911 66.9754C216.911 67.5444 218.036 68.0104 219.411 68.0104C221.911 68.0104 221.911 68.0104 221.911 50.5104C221.911 33.0104 221.911 33.0104 219.411 33.0104C217.044 33.0104 216.911 33.3064 216.911 38.5774ZM128.619 38.9144C130.824 40.5104 132.874 42.7604 133.176 43.9144C133.71 45.9594 133.421 46.0104 121.349 46.0104C109.988 46.0104 109.026 45.8674 109.609 44.2604C112.637 35.9114 121.164 33.5134 128.619 38.9144ZM173.944 37.5274C178.294 39.7774 180.221 44.2534 179.675 50.8404C179.16 57.0534 177.325 59.2064 170.912 61.1284C163.73 63.2804 155.843 57.1664 155.735 49.3654C155.593 39.0674 165.042 32.9244 173.944 37.5274ZM307.911 55.0304C307.911 70.2314 307.911 70.2314 319.014 69.8514C329.71 69.4854 330.206 69.3694 332.514 66.6854C335.187 63.5784 335.464 61.4754 333.746 57.3254C333.105 55.7774 332.69 52.2494 332.823 49.4854C333.196 41.7894 331.338 40.5964 318.309 40.1694C307.911 39.8284 307.911 39.8284 307.911 55.0304ZM337.911 55.1234C337.911 70.2374 337.911 70.2374 348.161 69.8454C363.18 69.2704 367.911 65.7084 367.911 54.9744C367.911 44.1024 362.163 40.0104 346.891 40.0104C337.911 40.0104 337.911 40.0104 337.911 55.1234ZM234.224 43.1124C229.138 44.5844 226.911 48.2784 226.911 55.2454C226.911 60.7334 227.192 61.4914 230.423 64.7224C233.876 68.1754 234.053 68.2284 240.92 67.8404C249.467 67.3574 252.436 65.3534 249.468 62.0734C247.837 60.2714 247.452 60.2184 245.562 61.5424C242.135 63.9424 237.193 63.3894 234.116 60.2604C231.411 57.5104 231.411 57.5104 241.661 57.2254C251.911 56.9404 251.911 56.9404 251.911 53.1984C251.911 44.6944 244.118 40.2504 234.224 43.1124ZM251.911 43.0814C251.911 43.6704 254.274 49.5394 257.161 56.1234C262.199 67.6134 262.524 68.0844 265.225 67.8034C267.768 67.5384 268.511 66.4524 272.949 56.5104C278.587 43.8804 278.924 42.0104 275.557 42.0104C273.553 42.0104 272.611 43.3524 269.223 51.0294C265.243 60.0484 265.243 60.0484 261.135 51.0294C257.52 43.0914 256.72 42.0104 254.469 42.0104C253.062 42.0104 251.911 42.4924 251.911 43.0814ZM324.47 47.5104C326.391 48.9954 326.391 49.0254 324.47 50.5104C323.402 51.3354 320.815 52.0104 318.72 52.0104C315.154 52.0104 314.911 51.8184 314.911 49.0104C314.911 46.2024 315.154 46.0104 318.72 46.0104C320.815 46.0104 323.402 46.6854 324.47 47.5104ZM214.105 50.0504C216.649 52.5944 217.044 53.6144 216.525 56.3004C214.531 66.6244 201.096 64.2674 201.793 53.7154C201.959 51.1844 206.411 47.0104 208.942 47.0104C210.11 47.0104 212.433 48.3784 214.105 50.0504ZM244.605 49.4254C246.148 50.7534 247.128 52.1244 246.781 52.4714C246.435 52.8184 242.835 52.9694 238.781 52.8064C231.411 52.5104 231.411 52.5104 234.116 49.7604C237.457 46.3634 240.919 46.2524 244.605 49.4254ZM356.84 47.9724C359.885 49.6024 361.368 54.4924 359.895 58.0484C358.27 61.9724 356.195 63.0104 349.977 63.0104C344.911 63.0104 344.911 63.0104 344.911 55.0104C344.911 47.0104 344.911 47.0104 349.977 47.0104C352.763 47.0104 355.851 47.4434 356.84 47.9724ZM326.605 59.6554C327.53 62.0674 324.235 64.0104 319.22 64.0104C315.099 64.0104 314.911 63.8794 314.911 61.0104C314.911 58.0384 314.963 58.0104 320.442 58.0104C324.653 58.0104 326.124 58.4034 326.605 59.6554Z" fill="#AAAAAA"/>
<path fill-rule="evenodd" clip-rule="evenodd" d="M148.911 41.5104C148.911 68.0104 148.911 68.0104 151.911 68.0104C154.244 68.0104 154.911 67.5664 154.911 66.0104C154.911 63.5384 155.089 63.5384 159.137 66.0064C163.824 68.8644 173.085 68.7284 178.391 65.7234C184.213 62.4264 186.874 57.1014 186.895 48.7104C186.918 39.0534 183.754 33.9314 175.679 30.5584C170.424 28.3624 164.986 28.6384 159.58 31.3744C154.911 33.7384 154.911 33.7384 154.911 24.3744C154.911 15.0104 154.911 15.0104 151.911 15.0104C148.911 15.0104 148.911 15.0104 148.911 41.5104ZM113.411 30.5064C101.934 34.5484 98.0932 51.9434 106.478 61.9074C112.03 68.5064 126.719 70.1244 134.286 64.9704C138.367 62.1904 138.86 60.0834 135.866 58.2144C134.124 57.1264 133.44 57.2354 131.264 58.9474C127.876 61.6124 122.827 62.4674 118.641 61.0864C115.127 59.9264 110.666 55.8234 109.589 52.7604C109.02 51.1414 110.166 51.0104 124.942 51.0104C142.888 51.0104 141.793 51.5984 139.837 43.0104C139.101 39.7774 137.67 37.4594 134.754 34.7774C128.623 29.1384 121.402 27.6934 113.411 30.5064ZM216.911 38.5774C216.911 43.9264 216.823 44.1134 214.661 43.3274C213.423 42.8784 210.279 42.5134 207.673 42.5174C203.718 42.5234 202.425 43.0344 199.849 45.6104C194.193 51.2664 194.952 62.2354 201.264 66.0844C204.706 68.1824 211.853 68.6474 214.977 66.9754C216.31 66.2614 216.911 66.2614 216.911 66.9754C216.911 67.5444 218.036 68.0104 219.411 68.0104C221.911 68.0104 221.911 68.0104 221.911 50.5104C221.911 33.0104 221.911 33.0104 219.411 33.0104C217.044 33.0104 216.911 33.3064 216.911 38.5774ZM128.619 38.9144C130.824 40.5104 132.874 42.7604 133.176 43.9144C133.71 45.9594 133.421 46.0104 121.349 46.0104C109.988 46.0104 109.026 45.8674 109.609 44.2604C112.637 35.9114 121.164 33.5134 128.619 38.9144ZM173.944 37.5274C178.294 39.7774 180.221 44.2534 179.675 50.8404C179.16 57.0534 177.325 59.2064 170.912 61.1284C163.73 63.2804 155.843 57.1664 155.735 49.3654C155.593 39.0674 165.042 32.9244 173.944 37.5274ZM307.911 55.0304C307.911 70.2314 307.911 70.2314 319.014 69.8514C329.71 69.4854 330.206 69.3694 332.514 66.6854C335.187 63.5784 335.464 61.4754 333.746 57.3254C333.105 55.7774 332.69 52.2494 332.823 49.4854C333.196 41.7894 331.338 40.5964 318.309 40.1694C307.911 39.8284 307.911 39.8284 307.911 55.0304ZM337.911 55.1234C337.911 70.2374 337.911 70.2374 348.161 69.8454C363.18 69.2704 367.911 65.7084 367.911 54.9744C367.911 44.1024 362.163 40.0104 346.891 40.0104C337.911 40.0104 337.911 40.0104 337.911 55.1234ZM234.224 43.1124C229.138 44.5844 226.911 48.2784 226.911 55.2454C226.911 60.7334 227.192 61.4914 230.423 64.7224C233.876 68.1754 234.053 68.2284 240.92 67.8404C249.467 67.3574 252.436 65.3534 249.468 62.0734C247.837 60.2714 247.452 60.2184 245.562 61.5424C242.135 63.9424 237.193 63.3894 234.116 60.2604C231.411 57.5104 231.411 57.5104 241.661 57.2254C251.911 56.9404 251.911 56.9404 251.911 53.1984C251.911 44.6944 244.118 40.2504 234.224 43.1124ZM251.911 43.0814C251.911 43.6704 254.274 49.5394 257.161 56.1234C262.199 67.6134 262.524 68.0844 265.225 67.8034C267.768 67.5384 268.511 66.4524 272.949 56.5104C278.587 43.8804 278.924 42.0104 275.557 42.0104C273.553 42.0104 272.611 43.3524 269.223 51.0294C265.243 60.0484 265.243 60.0484 261.135 51.0294C257.52 43.0914 256.72 42.0104 254.469 42.0104C253.062 42.0104 251.911 42.4924 251.911 43.0814ZM324.47 47.5104C326.391 48.9954 326.391 49.0254 324.47 50.5104C323.402 51.3354 320.815 52.0104 318.72 52.0104C315.154 52.0104 314.911 51.8184 314.911 49.0104C314.911 46.2024 315.154 46.0104 318.72 46.0104C320.815 46.0104 323.402 46.6854 324.47 47.5104ZM214.105 50.0504C216.649 52.5944 217.044 53.6144 216.525 56.3004C214.531 66.6244 201.096 64.2674 201.793 53.7154C201.959 51.1844 206.411 47.0104 208.942 47.0104C210.11 47.0104 212.433 48.3784 214.105 50.0504ZM244.605 49.4254C246.148 50.7534 247.128 52.1244 246.781 52.4714C246.435 52.8184 242.835 52.9694 238.781 52.8064C231.411 52.5104 231.411 52.5104 234.116 49.7604C237.457 46.3634 240.919 46.2524 244.605 49.4254ZM356.84 47.9724C359.885 49.6024 361.368 54.4924 359.895 58.0484C358.27 61.9724 356.195 63.0104 349.977 63.0104C344.911 63.0104 344.911 63.0104 344.911 55.0104C344.911 47.0104 344.911 47.0104 349.977 47.0104C352.763 47.0104 355.851 47.4434 356.84 47.9724ZM326.605 59.6554C327.53 62.0674 324.235 64.0104 319.22 64.0104C315.099 64.0104 314.911 63.8794 314.911 61.0104C314.911 58.0384 314.963 58.0104 320.442 58.0104C324.653 58.0104 326.124 58.4034 326.605 59.6554Z" fill="#808080"/>
<path fill-rule="evenodd" clip-rule="evenodd" d="M148.911 41.5104C148.911 68.0104 148.911 68.0104 151.911 68.0104C154.244 68.0104 154.911 67.5664 154.911 66.0104C154.911 63.5384 155.089 63.5384 159.137 66.0064C163.824 68.8644 173.085 68.7284 178.391 65.7234C184.213 62.4264 186.874 57.1014 186.895 48.7104C186.918 39.0534 183.754 33.9314 175.679 30.5584C170.424 28.3624 164.986 28.6384 159.58 31.3744C154.911 33.7384 154.911 33.7384 154.911 24.3744C154.911 15.0104 154.911 15.0104 151.911 15.0104C148.911 15.0104 148.911 15.0104 148.911 41.5104ZM113.411 30.5064C101.934 34.5484 98.0932 51.9434 106.478 61.9074C112.03 68.5064 126.719 70.1244 134.286 64.9704C138.367 62.1904 138.86 60.0834 135.866 58.2144C134.124 57.1264 133.44 57.2354 131.264 58.9474C127.876 61.6124 122.827 62.4674 118.641 61.0864C115.127 59.9264 110.666 55.8234 109.589 52.7604C109.02 51.1414 110.166 51.0104 124.942 51.0104C142.888 51.0104 141.793 51.5984 139.837 43.0104C139.101 39.7774 137.67 37.4594 134.754 34.7774C128.623 29.1384 121.402 27.6934 113.411 30.5064ZM216.911 38.5774C216.911 43.9264 216.823 44.1134 214.661 43.3274C213.423 42.8784 210.279 42.5134 207.673 42.5174C203.718 42.5234 202.425 43.0344 199.849 45.6104C194.193 51.2664 194.952 62.2354 201.264 66.0844C204.706 68.1824 211.853 68.6474 214.977 66.9754C216.31 66.2614 216.911 66.2614 216.911 66.9754C216.911 67.5444 218.036 68.0104 219.411 68.0104C221.911 68.0104 221.911 68.0104 221.911 50.5104C221.911 33.0104 221.911 33.0104 219.411 33.0104C217.044 33.0104 216.911 33.3064 216.911 38.5774ZM128.619 38.9144C130.824 40.5104 132.874 42.7604 133.176 43.9144C133.71 45.9594 133.421 46.0104 121.349 46.0104C109.988 46.0104 109.026 45.8674 109.609 44.2604C112.637 35.9114 121.164 33.5134 128.619 38.9144ZM173.944 37.5274C178.294 39.7774 180.221 44.2534 179.675 50.8404C179.16 57.0534 177.325 59.2064 170.912 61.1284C163.73 63.2804 155.843 57.1664 155.735 49.3654C155.593 39.0674 165.042 32.9244 173.944 37.5274ZM307.911 55.0304C307.911 70.2314 307.911 70.2314 319.014 69.8514C329.71 69.4854 330.206 69.3694 332.514 66.6854C335.187 63.5784 335.464 61.4754 333.746 57.3254C333.105 55.7774 332.69 52.2494 332.823 49.4854C333.196 41.7894 331.338 40.5964 318.309 40.1694C307.911 39.8284 307.911 39.8284 307.911 55.0304ZM337.911 55.1234C337.911 70.2374 337.911 70.2374 348.161 69.8454C363.18 69.2704 367.911 65.7084 367.911 54.9744C367.911 44.1024 362.163 40.0104 346.891 40.0104C337.911 40.0104 337.911 40.0104 337.911 55.1234ZM234.224 43.1124C229.138 44.5844 226.911 48.2784 226.911 55.2454C226.911 60.7334 227.192 61.4914 230.423 64.7224C233.876 68.1754 234.053 68.2284 240.92 67.8404C249.467 67.3574 252.436 65.3534 249.468 62.0734C247.837 60.2714 247.452 60.2184 245.562 61.5424C242.135 63.9424 237.193 63.3894 234.116 60.2604C231.411 57.5104 231.411 57.5104 241.661 57.2254C251.911 56.9404 251.911 56.9404 251.911 53.1984C251.911 44.6944 244.118 40.2504 234.224 43.1124ZM251.911 43.0814C251.911 43.6704 254.274 49.5394 257.161 56.1234C262.199 67.6134 262.524 68.0844 265.225 67.8034C267.768 67.5384 268.511 66.4524 272.949 56.5104C278.587 43.8804 278.924 42.0104 275.557 42.0104C273.553 42.0104 272.611 43.3524 269.223 51.0294C265.243 60.0484 265.243 60.0484 261.135 51.0294C257.52 43.0914 256.72 42.0104 254.469 42.0104C253.062 42.0104 251.911 42.4924 251.911 43.0814ZM324.47 47.5104C326.391 48.9954 326.391 49.0254 324.47 50.5104C323.402 51.3354 320.815 52.0104 318.72 52.0104C315.154 52.0104 314.911 51.8184 314.911 49.0104C314.911 46.2024 315.154 46.0104 318.72 46.0104C320.815 46.0104 323.402 46.6854 324.47 47.5104ZM214.105 50.0504C216.649 52.5944 217.044 53.6144 216.525 56.3004C214.531 66.6244 201.096 64.2674 201.793 53.7154C201.959 51.1844 206.411 47.0104 208.942 47.0104C210.11 47.0104 212.433 48.3784 214.105 50.0504ZM244.605 49.4254C246.148 50.7534 247.128 52.1244 246.781 52.4714C246.435 52.8184 242.835 52.9694 238.781 52.8064C231.411 52.5104 231.411 52.5104 234.116 49.7604C237.457 46.3634 240.919 46.2524 244.605 49.4254ZM356.84 47.9724C359.885 49.6024 361.368 54.4924 359.895 58.0484C358.27 61.9724 356.195 63.0104 349.977 63.0104C344.911 63.0104 344.911 63.0104 344.911 55.0104C344.911 47.0104 344.911 47.0104 349.977 47.0104C352.763 47.0104 355.851 47.4434 356.84 47.9724ZM326.605 59.6554C327.53 62.0674 324.235 64.0104 319.22 64.0104C315.099 64.0104 314.911 63.8794 314.911 61.0104C314.911 58.0384 314.963 58.0104 320.442 58.0104C324.653 58.0104 326.124 58.4034 326.605 59.6554Z" fill="black"/>
</svg>
